<svg width="20" height="20" viewBox="0 0 20 20" fill="none" xmlns="http://www.w3.org/2000/svg"><path d="M18.2422 4.6875H15.8578C16.2264 4.1975 16.4453 3.58871 16.4453 2.92969C16.4453 1.31426 15.1311 0 13.5156 0C12.5425 0 11.825 0.348633 11.2575 1.09715C10.7827 1.7234 10.4355 2.59777 10 3.70254C9.56453 2.59773 9.21734 1.7234 8.74254 1.09715C8.175 0.348633 7.45746 0 6.48438 0C4.86895 0 3.55469 1.31426 3.55469 2.92969C3.55469 3.58871 3.77355 4.1975 4.14223 4.6875H1.75781C0.788555 4.6875 0 5.47605 0 6.44531V7.61719C0 8.38105 0.489883 9.03234 1.17188 9.27422V18.2422C1.17188 19.2114 1.96043 20 2.92969 20H17.0703C18.0396 20 18.8281 19.2114 18.8281 18.2422V9.27422C19.5101 9.03234 20 8.38105 20 7.61719V6.44531C20 5.47605 19.2114 4.6875 18.2422 4.6875ZM11.0755 4.16953C11.9732 1.89227 12.3144 1.17188 13.5156 1.17188C14.4849 1.17188 15.2734 1.96043 15.2734 2.92969C15.2734 3.89895 14.4849 4.6875 13.5156 4.6875H10.8706C10.9424 4.50723 11.0109 4.33367 11.0755 4.16953ZM6.48438 1.17188C7.68559 1.17188 8.02684 1.89227 8.92445 4.16953C8.98914 4.33367 9.05762 4.50723 9.12941 4.6875H6.48438C5.51512 4.6875 4.72656 3.89895 4.72656 2.92969C4.72656 1.96043 5.51512 1.17188 6.48438 1.17188ZM7.65625 18.8281H2.92969C2.6066 18.8281 2.34375 18.5653 2.34375 18.2422V9.375H7.65625V18.8281ZM7.65625 8.20312H1.75781C1.43473 8.20312 1.17188 7.94027 1.17188 7.61719V6.44531C1.17188 6.12223 1.43473 5.85938 1.75781 5.85938H7.65625V8.20312ZM11.1719 18.8281H8.82812V5.85938C8.9509 5.85938 10.4984 5.85938 11.1719 5.85938V18.8281ZM17.6562 18.2422C17.6562 18.5653 17.3934 18.8281 17.0703 18.8281H12.3438V9.375H17.6562V18.2422ZM18.8281 7.61719C18.8281 7.94027 18.5653 8.20312 18.2422 8.20312H12.3438V5.85938H18.2422C18.5653 5.85938 18.8281 6.12223 18.8281 6.44531V7.61719Z" fill="#000"></path></svg>