<svg width="19" height="18" viewBox="0 0 19 18" fill="none" xmlns="http://www.w3.org/2000/svg"><g clip-path="url(#clip0_12360_1844)"><path d="M2.68167 11.6513L2.88164 11.8512C3.34362 11.3404 3.90414 10.9283 4.52949 10.6396C5.15484 10.351 5.83211 10.1918 6.52057 10.1717C7.24149 10.1688 7.95327 10.333 8.60006 10.6514L8.64036 10.6917H13.3993C13.6346 10.6924 13.8618 10.7777 14.0394 10.932C14.1957 11.1119 14.2933 11.3353 14.3192 11.5722C14.3173 11.8049 14.2239 12.0275 14.0594 12.192C13.8948 12.3566 13.6722 12.4499 13.4395 12.4519H10.3982V13.0115H13.4395C13.6289 13.0123 13.8165 12.9756 13.9916 12.9035C14.1667 12.8314 14.3257 12.7254 14.4596 12.5915C14.5935 12.4576 14.6995 12.2985 14.7716 12.1235C14.8437 11.9484 14.8804 11.7608 14.8796 11.5714H14.599L14.799 11.7714L16.9188 9.65159C17.0943 9.49875 17.323 9.42139 17.5553 9.43634C17.7875 9.45129 18.0045 9.55734 18.1589 9.73143C18.2945 9.89417 18.3688 10.0993 18.3688 10.3112C18.3688 10.523 18.2945 10.7282 18.1589 10.8909L14.8796 14.1702C14.691 14.3603 14.4667 14.5111 14.2195 14.6141C13.9724 14.717 13.7073 14.7701 13.4395 14.7701H7.60403C7.12634 14.7718 6.6678 14.9581 6.3244 15.2902L6.52437 15.4901L6.72433 15.2902L2.88544 11.4513L2.68547 11.6513L2.48551 11.8512L6.52437 15.8901L6.72433 15.6901C6.84014 15.5753 6.97744 15.4844 7.12839 15.4227C7.27933 15.361 7.44096 15.3297 7.60403 15.3305H13.4031C14.0919 15.3269 14.752 15.054 15.2423 14.5702L18.5216 11.2909C18.771 11.005 18.9017 10.6345 18.8869 10.2554C18.8721 9.87627 18.7128 9.51716 18.4417 9.25166C18.177 9.00125 17.8265 8.86171 17.4621 8.86171C17.0977 8.86171 16.7471 9.00125 16.4824 9.25166L14.2828 11.4513V11.5714C14.2808 11.8041 14.1874 12.0267 14.0229 12.1913C13.8584 12.3558 13.6357 12.4491 13.4031 12.4511H10.3998V13.0107H13.4411C13.8088 13.0085 14.1619 12.8661 14.4283 12.6125C14.6947 12.3589 14.8543 12.0133 14.8747 11.6461C14.895 11.2789 14.7746 10.9178 14.5379 10.6363C14.3012 10.3548 13.966 10.1742 13.6007 10.1314H8.72019V10.4112L8.84033 10.1709C8.12069 9.80766 7.32667 9.61612 6.52057 9.61129C4.9786 9.67865 3.52623 10.3545 2.4817 11.4908L2.28174 11.6908L2.4817 11.8908L2.68167 11.6513Z" fill="#C40101"></path><path d="M6.10838 16.7698L5.90841 16.5698L5.30851 17.1697C5.16891 17.3045 4.98246 17.3797 4.78845 17.3797C4.59444 17.3797 4.40799 17.3045 4.26839 17.1697L0.748828 13.6502C0.614102 13.5106 0.538811 13.3241 0.538811 13.1301C0.538811 12.9361 0.614102 12.7496 0.748828 12.61L1.34873 12.0101C1.49129 11.8813 1.67662 11.8099 1.86879 11.8099C2.06097 11.8099 2.2463 11.8813 2.38886 12.0101L5.91145 15.5305C6.04636 15.67 6.12177 15.8565 6.12177 16.0505C6.12177 16.2446 6.04636 16.4311 5.91145 16.5706L6.11142 16.7706L6.31139 16.9705C6.54276 16.7202 6.67127 16.3918 6.67127 16.0509C6.67127 15.71 6.54276 15.3816 6.31139 15.1313L2.79183 11.6117C2.67416 11.4856 2.5318 11.385 2.37359 11.3162C2.21539 11.2474 2.04472 11.2119 1.87221 11.2119C1.6997 11.2119 1.52904 11.2474 1.37083 11.3162C1.21263 11.385 1.07026 11.4856 0.952596 11.6117L0.392995 12.2519C0.26968 12.3712 0.171621 12.5141 0.104653 12.6721C0.0376845 12.8301 0.00317383 12.9999 0.00317383 13.1715C0.00317383 13.3431 0.0376845 13.513 0.104653 13.671C0.171621 13.8289 0.26968 13.9718 0.392995 14.0912L3.91255 17.6107C4.03187 17.734 4.17477 17.8321 4.33276 17.8991C4.49074 17.966 4.66058 18.0005 4.83217 18.0005C5.00376 18.0005 5.1736 17.966 5.33158 17.8991C5.48957 17.8321 5.63247 17.734 5.75179 17.6107L6.35169 17.0108L6.10838 16.7698Z" fill="#C40101"></path><path d="M14.7017 5.99974V2.73033C14.7015 2.58694 14.6637 2.44613 14.5919 2.32201C14.5201 2.1979 14.4169 2.09485 14.2927 2.02323L11.4315 0.387001C11.3073 0.315263 11.1663 0.277496 11.0229 0.277496C10.8794 0.277496 10.7384 0.315263 10.6142 0.387001L7.75232 2.02399C7.6281 2.09561 7.52492 2.19866 7.45312 2.32277C7.38132 2.44689 7.34343 2.5877 7.34326 2.73109V6.0005C7.34343 6.14389 7.38132 6.28471 7.45312 6.40882C7.52492 6.53294 7.6281 6.63598 7.75232 6.70761L10.6127 8.34231C10.7369 8.41405 10.8779 8.45181 11.0213 8.45181C11.1648 8.45181 11.3058 8.41405 11.43 8.34231L14.2919 6.70684C14.4163 6.63531 14.5196 6.53231 14.5915 6.40819C14.6635 6.28407 14.7015 6.1432 14.7017 5.99974Z" stroke="#C40101" stroke-width="0.7" stroke-linecap="round" stroke-linejoin="round"></path><path d="M7.45361 2.30455L11.0234 4.36884L14.5923 2.30455" stroke="#C40101" stroke-width="0.7" stroke-linecap="round" stroke-linejoin="round"></path><path d="M11.0225 8.48525V4.36427" stroke="#C40101" stroke-width="0.7" stroke-linecap="round" stroke-linejoin="round"></path></g><defs><clipPath id="clip0_12360_1844"><rect width="18.8843" height="18" fill="white"></rect></clipPath></defs></svg>