<svg width="26" height="20" viewBox="0 0 26 20" fill="none" xmlns="http://www.w3.org/2000/svg" class="min-w-6"><g id="svg-image-16 2" clip-path="url(#clip0_12211_10440)"><g id="Path 36098"><mask id="path-1-outside-1_12211_10440" maskUnits="userSpaceOnUse" x="-1" y="-1" width="27" height="22" fill="black"><rect fill="white" x="-1" y="-1" width="27" height="22"></rect><path d="M5.44033 0H5.72568C6.55868 0.0311995 7.37492 0.246055 8.11736 0.629558C8.8598 1.01306 9.51054 1.55596 10.0241 2.22034C11.343 2.21239 12.6624 2.22034 13.9812 2.21504C14.2669 2.19739 14.5516 2.26203 14.8025 2.40146C15.0533 2.54089 15.26 2.74941 15.3985 3.00283C15.5827 3.50799 15.6424 4.05101 15.5723 4.58478H20.965C21.2875 4.55034 21.4551 4.86557 21.6331 5.07854C22.7252 6.46552 23.8216 7.84933 24.9221 9.22995C25.1417 9.46114 25.3212 9.7282 25.453 10.0199V16.2443C25.4363 16.5127 25.3311 16.7677 25.1543 16.9684C24.9774 17.1692 24.7392 17.3041 24.4776 17.3516C23.954 17.4046 23.4273 17.3595 22.9032 17.3738C22.8347 17.8936 22.6337 18.3864 22.3198 18.8037C22.0059 19.221 21.5901 19.5484 21.1132 19.7536C20.6895 19.933 20.2308 20.0116 19.7724 19.9832C19.314 19.9548 18.8682 19.8202 18.4693 19.5898C18.0705 19.3594 17.7292 19.0394 17.4719 18.6545C17.2147 18.2696 17.0482 17.83 16.9854 17.3696C14.5006 17.3696 12.0163 17.3664 9.53145 17.3696C9.43294 18.0715 9.09715 18.7171 8.58121 19.1967C8.06528 19.6763 7.40106 19.9601 6.7016 20H6.46704C5.76452 19.967 5.09542 19.6869 4.57517 19.208C4.05492 18.7292 3.71615 18.0816 3.61729 17.377C3.05372 17.4219 2.48669 17.3835 1.93404 17.2631C1.65388 17.1563 1.41275 16.9653 1.24306 16.7158C1.07337 16.4662 0.983248 16.1701 0.98482 15.8671C0.980632 13.4974 0.98482 11.1266 0.981679 8.75685C0.383301 7.86834 0.043194 6.82781 0 5.75349L0 5.40701C0.0611246 4.0175 0.625431 2.69933 1.58535 1.7038C2.60598 0.655328 3.98661 0.0451252 5.44033 0ZM4.84033 0.785675C3.87702 0.937021 2.98069 1.3772 2.26717 2.04935C1.55364 2.72149 1.05571 3.59471 0.8377 4.55617C0.679372 5.28372 0.689824 6.03849 0.868234 6.76126C1.04664 7.48403 1.38816 8.15513 1.86598 8.72189C2.29842 9.24363 2.83371 9.66832 3.43761 9.9688C4.04151 10.2693 4.70073 10.4389 5.37312 10.4669C6.0455 10.4949 6.71626 10.3805 7.3425 10.1313C7.96873 9.88195 8.53667 9.50316 9.00998 9.0191C9.47939 8.54552 9.84622 7.97825 10.0871 7.35339C10.328 6.72852 10.4378 6.05975 10.4093 5.38963C10.3808 4.71951 10.2148 4.06273 9.92179 3.46109C9.62878 2.85945 9.2152 2.32612 8.70736 1.89505C8.17934 1.43914 7.5604 1.10376 6.89272 0.911769C6.22503 0.719778 5.52429 0.675685 4.83824 0.782496M10.4786 2.94668C10.9826 3.8941 11.2054 4.96874 11.12 6.04126C11.0346 7.11378 10.6448 8.13849 9.99742 8.99208C9.51801 9.6211 8.91288 10.1407 8.22155 10.5171C7.53022 10.8934 6.76822 11.118 5.9853 11.1761C5.20239 11.2343 4.41615 11.1247 3.67793 10.8545C2.93971 10.5843 2.26609 10.1597 1.70105 9.60822C1.70786 11.694 1.70105 13.7798 1.7042 15.8655C1.70087 16.0583 1.77057 16.245 1.89899 16.3873C2.02741 16.5297 2.20481 16.6169 2.39477 16.6311C2.80106 16.6443 3.20734 16.6279 3.61363 16.638C3.70657 15.9102 4.05825 15.2415 4.60295 14.757C5.14765 14.2724 5.84808 14.0052 6.57332 14.0052C7.29857 14.0052 7.999 14.2724 8.5437 14.757C9.08839 15.2415 9.44008 15.9102 9.53302 16.638C11.3079 16.6337 13.0817 16.638 14.8556 16.638V3.73818C14.8594 3.6341 14.8422 3.53032 14.805 3.43324C14.7677 3.33616 14.7111 3.24784 14.6388 3.17372C14.5665 3.09961 14.48 3.04127 14.3845 3.00231C14.289 2.96335 14.1867 2.9446 14.0838 2.94721H10.4791M15.5739 5.309C15.5817 9.08585 15.5739 12.8627 15.5781 16.6401C16.0493 16.6401 16.5205 16.6348 16.9885 16.6401C17.0529 16.1383 17.2409 15.661 17.5351 15.2519C17.8294 14.8428 18.2205 14.5151 18.6726 14.2988C19.1246 14.0826 19.6231 13.9847 20.1223 14.0143C20.6215 14.0438 21.1053 14.1998 21.5294 14.468C21.9042 14.7022 22.2222 15.0186 22.4601 15.3938C22.6979 15.769 22.8496 16.1935 22.9038 16.6359C23.3797 16.63 23.8561 16.6417 24.331 16.6327C24.3881 16.6279 24.4436 16.6117 24.4945 16.5851C24.5454 16.5585 24.5906 16.5221 24.6275 16.4778C24.6644 16.4335 24.6923 16.3822 24.7097 16.327C24.727 16.2717 24.7333 16.2136 24.7284 16.1559V11.7168C22.9064 11.7168 21.0859 11.72 19.2639 11.7168C18.9698 11.7113 18.6886 11.5936 18.4765 11.3874C18.2644 11.1811 18.1371 10.9014 18.12 10.6042C18.1145 9.73361 18.1145 8.86298 18.12 7.99237C18.1234 7.68638 18.2456 7.39403 18.4602 7.17844C18.6749 6.96285 18.9647 6.84132 19.2671 6.84008C20.2132 6.83479 21.1598 6.84008 22.1058 6.84008C21.7034 6.32478 21.2968 5.81371 20.8859 5.30688C19.1153 5.31006 17.344 5.3037 15.5744 5.31006M18.8278 8.07555C18.8278 8.88453 18.8236 9.69458 18.8278 10.5036C18.8246 10.565 18.8335 10.6265 18.854 10.6844C18.8746 10.7423 18.9063 10.7955 18.9474 10.8408C18.9885 10.8862 19.0382 10.9228 19.0934 10.9484C19.1487 10.9741 19.2084 10.9884 19.2692 10.9904C21.0901 10.9994 22.9095 10.9904 24.7294 10.9957C24.7294 10.7171 24.7294 10.4373 24.7346 10.1581C24.0807 9.32161 23.4168 8.49355 22.7603 7.65913C22.6797 7.51079 22.4949 7.57331 22.3629 7.55689C21.3325 7.56695 20.3016 7.54894 19.2739 7.56589C19.2108 7.56725 19.1487 7.58181 19.0914 7.60865C19.0342 7.6355 18.983 7.67405 18.9412 7.72187C18.8994 7.7697 18.8679 7.82577 18.8485 7.88655C18.8292 7.94732 18.8225 8.01149 18.8289 8.07502M5.93824 14.8208C5.48017 14.9625 5.07739 15.2457 4.78634 15.6306C4.49529 16.0156 4.33054 16.4831 4.3152 16.9675C4.31365 17.4529 4.46439 17.9263 4.74571 18.3195C5.02703 18.7127 5.42442 19.0055 5.88065 19.1555C6.42578 19.3366 7.01878 19.2994 7.53758 19.0514C8.05637 18.8034 8.46147 18.3636 8.66946 17.8225C8.87745 17.2815 8.8725 16.6803 8.65564 16.1427C8.43877 15.6052 8.0265 15.1723 7.50369 14.9331C7.00943 14.7154 6.45633 14.6757 5.93667 14.8208M19.309 14.8208C18.9305 14.9371 18.5891 15.1526 18.3194 15.4454C18.0497 15.7382 17.8613 16.098 17.7733 16.4882C17.6852 16.8784 17.7007 17.2853 17.8181 17.6675C17.9355 18.0497 18.1507 18.3938 18.4419 18.6647C18.733 18.9357 19.0897 19.124 19.476 19.2105C19.8622 19.297 20.2641 19.2787 20.6411 19.1574C21.0181 19.0361 21.3566 18.8161 21.6225 18.5197C21.8884 18.2233 22.0721 17.8611 22.1551 17.4697C22.2439 17.0386 22.2062 16.5905 22.0466 16.1807C21.8869 15.771 21.6123 15.4174 21.2566 15.1636C20.9775 14.9643 20.6581 14.8304 20.3215 14.7715C19.9849 14.7126 19.6396 14.7302 19.3105 14.8229L19.309 14.8208Z"></path></mask><path d="M5.44033 0H5.72568C6.55868 0.0311995 7.37492 0.246055 8.11736 0.629558C8.8598 1.01306 9.51054 1.55596 10.0241 2.22034C11.343 2.21239 12.6624 2.22034 13.9812 2.21504C14.2669 2.19739 14.5516 2.26203 14.8025 2.40146C15.0533 2.54089 15.26 2.74941 15.3985 3.00283C15.5827 3.50799 15.6424 4.05101 15.5723 4.58478H20.965C21.2875 4.55034 21.4551 4.86557 21.6331 5.07854C22.7252 6.46552 23.8216 7.84933 24.9221 9.22995C25.1417 9.46114 25.3212 9.7282 25.453 10.0199V16.2443C25.4363 16.5127 25.3311 16.7677 25.1543 16.9684C24.9774 17.1692 24.7392 17.3041 24.4776 17.3516C23.954 17.4046 23.4273 17.3595 22.9032 17.3738C22.8347 17.8936 22.6337 18.3864 22.3198 18.8037C22.0059 19.221 21.5901 19.5484 21.1132 19.7536C20.6895 19.933 20.2308 20.0116 19.7724 19.9832C19.314 19.9548 18.8682 19.8202 18.4693 19.5898C18.0705 19.3594 17.7292 19.0394 17.4719 18.6545C17.2147 18.2696 17.0482 17.83 16.9854 17.3696C14.5006 17.3696 12.0163 17.3664 9.53145 17.3696C9.43294 18.0715 9.09715 18.7171 8.58121 19.1967C8.06528 19.6763 7.40106 19.9601 6.7016 20H6.46704C5.76452 19.967 5.09542 19.6869 4.57517 19.208C4.05492 18.7292 3.71615 18.0816 3.61729 17.377C3.05372 17.4219 2.48669 17.3835 1.93404 17.2631C1.65388 17.1563 1.41275 16.9653 1.24306 16.7158C1.07337 16.4662 0.983248 16.1701 0.98482 15.8671C0.980632 13.4974 0.98482 11.1266 0.981679 8.75685C0.383301 7.86834 0.043194 6.82781 0 5.75349L0 5.40701C0.0611246 4.0175 0.625431 2.69933 1.58535 1.7038C2.60598 0.655328 3.98661 0.0451252 5.44033 0ZM4.84033 0.785675C3.87702 0.937021 2.98069 1.3772 2.26717 2.04935C1.55364 2.72149 1.05571 3.59471 0.8377 4.55617C0.679372 5.28372 0.689824 6.03849 0.868234 6.76126C1.04664 7.48403 1.38816 8.15513 1.86598 8.72189C2.29842 9.24363 2.83371 9.66832 3.43761 9.9688C4.04151 10.2693 4.70073 10.4389 5.37312 10.4669C6.0455 10.4949 6.71626 10.3805 7.3425 10.1313C7.96873 9.88195 8.53667 9.50316 9.00998 9.0191C9.47939 8.54552 9.84622 7.97825 10.0871 7.35339C10.328 6.72852 10.4378 6.05975 10.4093 5.38963C10.3808 4.71951 10.2148 4.06273 9.92179 3.46109C9.62878 2.85945 9.2152 2.32612 8.70736 1.89505C8.17934 1.43914 7.5604 1.10376 6.89272 0.911769C6.22503 0.719778 5.52429 0.675685 4.83824 0.782496M10.4786 2.94668C10.9826 3.8941 11.2054 4.96874 11.12 6.04126C11.0346 7.11378 10.6448 8.13849 9.99742 8.99208C9.51801 9.6211 8.91288 10.1407 8.22155 10.5171C7.53022 10.8934 6.76822 11.118 5.9853 11.1761C5.20239 11.2343 4.41615 11.1247 3.67793 10.8545C2.93971 10.5843 2.26609 10.1597 1.70105 9.60822C1.70786 11.694 1.70105 13.7798 1.7042 15.8655C1.70087 16.0583 1.77057 16.245 1.89899 16.3873C2.02741 16.5297 2.20481 16.6169 2.39477 16.6311C2.80106 16.6443 3.20734 16.6279 3.61363 16.638C3.70657 15.9102 4.05825 15.2415 4.60295 14.757C5.14765 14.2724 5.84808 14.0052 6.57332 14.0052C7.29857 14.0052 7.999 14.2724 8.5437 14.757C9.08839 15.2415 9.44008 15.9102 9.53302 16.638C11.3079 16.6337 13.0817 16.638 14.8556 16.638V3.73818C14.8594 3.6341 14.8422 3.53032 14.805 3.43324C14.7677 3.33616 14.7111 3.24784 14.6388 3.17372C14.5665 3.09961 14.48 3.04127 14.3845 3.00231C14.289 2.96335 14.1867 2.9446 14.0838 2.94721H10.4791M15.5739 5.309C15.5817 9.08585 15.5739 12.8627 15.5781 16.6401C16.0493 16.6401 16.5205 16.6348 16.9885 16.6401C17.0529 16.1383 17.2409 15.661 17.5351 15.2519C17.8294 14.8428 18.2205 14.5151 18.6726 14.2988C19.1246 14.0826 19.6231 13.9847 20.1223 14.0143C20.6215 14.0438 21.1053 14.1998 21.5294 14.468C21.9042 14.7022 22.2222 15.0186 22.4601 15.3938C22.6979 15.769 22.8496 16.1935 22.9038 16.6359C23.3797 16.63 23.8561 16.6417 24.331 16.6327C24.3881 16.6279 24.4436 16.6117 24.4945 16.5851C24.5454 16.5585 24.5906 16.5221 24.6275 16.4778C24.6644 16.4335 24.6923 16.3822 24.7097 16.327C24.727 16.2717 24.7333 16.2136 24.7284 16.1559V11.7168C22.9064 11.7168 21.0859 11.72 19.2639 11.7168C18.9698 11.7113 18.6886 11.5936 18.4765 11.3874C18.2644 11.1811 18.1371 10.9014 18.12 10.6042C18.1145 9.73361 18.1145 8.86298 18.12 7.99237C18.1234 7.68638 18.2456 7.39403 18.4602 7.17844C18.6749 6.96285 18.9647 6.84132 19.2671 6.84008C20.2132 6.83479 21.1598 6.84008 22.1058 6.84008C21.7034 6.32478 21.2968 5.81371 20.8859 5.30688C19.1153 5.31006 17.344 5.3037 15.5744 5.31006M18.8278 8.07555C18.8278 8.88453 18.8236 9.69458 18.8278 10.5036C18.8246 10.565 18.8335 10.6265 18.854 10.6844C18.8746 10.7423 18.9063 10.7955 18.9474 10.8408C18.9885 10.8862 19.0382 10.9228 19.0934 10.9484C19.1487 10.9741 19.2084 10.9884 19.2692 10.9904C21.0901 10.9994 22.9095 10.9904 24.7294 10.9957C24.7294 10.7171 24.7294 10.4373 24.7346 10.1581C24.0807 9.32161 23.4168 8.49355 22.7603 7.65913C22.6797 7.51079 22.4949 7.57331 22.3629 7.55689C21.3325 7.56695 20.3016 7.54894 19.2739 7.56589C19.2108 7.56725 19.1487 7.58181 19.0914 7.60865C19.0342 7.6355 18.983 7.67405 18.9412 7.72187C18.8994 7.7697 18.8679 7.82577 18.8485 7.88655C18.8292 7.94732 18.8225 8.01149 18.8289 8.07502M5.93824 14.8208C5.48017 14.9625 5.07739 15.2457 4.78634 15.6306C4.49529 16.0156 4.33054 16.4831 4.3152 16.9675C4.31365 17.4529 4.46439 17.9263 4.74571 18.3195C5.02703 18.7127 5.42442 19.0055 5.88065 19.1555C6.42578 19.3366 7.01878 19.2994 7.53758 19.0514C8.05637 18.8034 8.46147 18.3636 8.66946 17.8225C8.87745 17.2815 8.8725 16.6803 8.65564 16.1427C8.43877 15.6052 8.0265 15.1723 7.50369 14.9331C7.00943 14.7154 6.45633 14.6757 5.93667 14.8208M19.309 14.8208C18.9305 14.9371 18.5891 15.1526 18.3194 15.4454C18.0497 15.7382 17.8613 16.098 17.7733 16.4882C17.6852 16.8784 17.7007 17.2853 17.8181 17.6675C17.9355 18.0497 18.1507 18.3938 18.4419 18.6647C18.733 18.9357 19.0897 19.124 19.476 19.2105C19.8622 19.297 20.2641 19.2787 20.6411 19.1574C21.0181 19.0361 21.3566 18.8161 21.6225 18.5197C21.8884 18.2233 22.0721 17.8611 22.1551 17.4697C22.2439 17.0386 22.2062 16.5905 22.0466 16.1807C21.8869 15.771 21.6123 15.4174 21.2566 15.1636C20.9775 14.9643 20.6581 14.8304 20.3215 14.7715C19.9849 14.7126 19.6396 14.7302 19.3105 14.8229L19.309 14.8208Z" fill="black"></path><path d="M5.44033 0V-0.100048L5.43723 -0.0999519L5.44033 0ZM5.72568 0L5.72942 -0.1H5.72568V0ZM10.0241 2.22034L9.94501 2.2815L9.97526 2.32063L10.0247 2.32034L10.0241 2.22034ZM13.9812 2.21504L13.9816 2.31521L13.9874 2.31485L13.9812 2.21504ZM15.3985 3.00283L15.4924 2.96857L15.4899 2.96149L15.4862 2.95488L15.3985 3.00283ZM15.5723 4.58478L15.4732 4.57176L15.4583 4.68478H15.5723V4.58478ZM20.965 4.58478V4.68535L20.9756 4.68421L20.965 4.58478ZM21.6331 5.07854L21.7117 5.01665L21.7098 5.01441L21.6331 5.07854ZM24.9221 9.22995L24.8436 9.29252L24.8496 9.29883L24.9221 9.22995ZM25.453 10.0199H25.553V9.99833L25.5441 9.9787L25.453 10.0199ZM25.453 16.2443L25.553 16.2506V16.2443H25.453ZM24.4776 17.3516L24.4877 17.4514L24.4954 17.45L24.4776 17.3516ZM22.9032 17.3738L22.9005 17.2739L22.8152 17.2762L22.8041 17.3608L22.9032 17.3738ZM21.1132 19.7536L21.1522 19.8457L21.1527 19.8455L21.1132 19.7536ZM16.9854 17.3696L17.0845 17.3561L17.0727 17.2696H16.9854V17.3696ZM9.53145 17.3696L9.53132 17.2696L9.44449 17.2697L9.43242 17.3557L9.53145 17.3696ZM6.7016 20V20.1002L6.70729 20.0998L6.7016 20ZM6.46704 20L6.46234 20.1H6.46704V20ZM3.61729 17.377L3.71632 17.3631L3.70323 17.2699L3.60935 17.2773L3.61729 17.377ZM1.93404 17.2631L1.89842 17.3566L1.90543 17.3592L1.91275 17.3608L1.93404 17.2631ZM0.98482 15.8671L1.08482 15.8676L1.08482 15.867L0.98482 15.8671ZM0.981679 8.75685L1.08168 8.75672L1.08164 8.72626L1.06462 8.70099L0.981679 8.75685ZM0 5.75349H-0.100081L-0.0999193 5.75751L0 5.75349ZM0 5.40701L-0.1 5.40261V5.40701H0ZM1.58535 1.7038L1.51369 1.63404L1.51336 1.63438L1.58535 1.7038ZM0.8377 4.55617L0.740171 4.53406L0.739986 4.53491L0.8377 4.55617ZM1.86598 8.72189L1.94297 8.65807L1.94243 8.65743L1.86598 8.72189ZM9.00998 9.0191L8.93896 8.9487L8.93848 8.94919L9.00998 9.0191ZM8.70736 1.89505L8.64201 1.97074L8.64265 1.97129L8.70736 1.89505ZM9.99742 8.99208L10.077 9.0527L10.0771 9.05251L9.99742 8.99208ZM1.70105 9.60822L1.7709 9.53666L1.60028 9.37014L1.60105 9.60855L1.70105 9.60822ZM1.7042 15.8655L1.8042 15.8673L1.80419 15.8654L1.7042 15.8655ZM2.39477 16.6311L2.38732 16.7309L2.39152 16.731L2.39477 16.6311ZM3.61363 16.638L3.61115 16.7379L3.70139 16.7402L3.71282 16.6506L3.61363 16.638ZM9.53302 16.638L9.43383 16.6506L9.44501 16.7382L9.53326 16.738L9.53302 16.638ZM14.8556 16.638V16.738H14.9556V16.638H14.8556ZM14.8556 3.73818L14.7556 3.73444V3.73818H14.8556ZM14.0838 2.94721V3.04724L14.0864 3.04717L14.0838 2.94721ZM15.5781 16.6401L15.4781 16.6402L15.4782 16.7401H15.5781V16.6401ZM16.9885 16.6401L16.9874 16.7401L17.0764 16.7411L17.0877 16.6528L16.9885 16.6401ZM21.5294 14.468L21.476 14.5525L21.4764 14.5528L21.5294 14.468ZM22.9038 16.6359L22.8045 16.648L22.8154 16.7369L22.905 16.7358L22.9038 16.6359ZM24.331 16.6327L24.3329 16.7329L24.3394 16.7323L24.331 16.6327ZM24.7284 16.1559H24.628L24.6287 16.1644L24.7284 16.1559ZM24.7284 11.7168H24.8284V11.6168H24.7284V11.7168ZM19.2639 11.7168L19.2621 11.8168L19.2638 11.8168L19.2639 11.7168ZM18.12 10.6042L18.0198 10.6049L18.0201 10.61L18.12 10.6042ZM18.12 7.99237L18.02 7.99125L18.02 7.99174L18.12 7.99237ZM19.2671 6.84008L19.2675 6.94008L19.2676 6.94008L19.2671 6.84008ZM22.1058 6.84008V6.94008H22.3108L22.1847 6.77853L22.1058 6.84008ZM20.8859 5.30688L20.9636 5.24391L20.9335 5.20679L20.8858 5.20688L20.8859 5.30688ZM18.8278 10.5036L18.9278 10.5088L18.9278 10.503L18.8278 10.5036ZM19.2692 10.9904L19.2658 11.0904L19.2687 11.0904L19.2692 10.9904ZM24.7294 10.9957L24.7291 11.0957L24.8294 11.096V10.9957H24.7294ZM24.7346 10.1581L24.8346 10.16L24.8353 10.1245L24.8134 10.0966L24.7346 10.1581ZM22.7603 7.65913L22.6724 7.70689L22.6765 7.71432L22.6817 7.72097L22.7603 7.65913ZM22.3629 7.55689L22.3754 7.45676L22.3619 7.45689L22.3629 7.55689ZM19.2739 7.56589L19.2722 7.4659L19.2717 7.46592L19.2739 7.56589ZM4.3152 16.9675L4.21521 16.9643L4.2152 16.9672L4.3152 16.9675ZM5.88065 19.1555L5.91218 19.0606L5.9119 19.0605L5.88065 19.1555ZM7.50369 14.9331L7.5453 14.8422L7.54401 14.8416L7.50369 14.9331ZM19.309 14.8208L19.3893 14.7613L19.3472 14.7044L19.2796 14.7252L19.309 14.8208ZM22.1551 17.4697L22.2529 17.4905L22.253 17.4899L22.1551 17.4697ZM21.2566 15.1636L21.1985 15.245L21.1985 15.245L21.2566 15.1636ZM19.3105 14.8229L19.2302 14.8824L19.2713 14.9379L19.3377 14.9192L19.3105 14.8229ZM5.44033 0.1H5.72568V-0.1H5.44033V0.1ZM5.72193 0.0999299C6.54021 0.130578 7.34206 0.341633 8.07146 0.718405L8.16325 0.540711C7.40778 0.150477 6.57716 -0.0681787 5.72942 -0.0999299L5.72193 0.0999299ZM8.07146 0.718405C8.80087 1.09518 9.4403 1.62861 9.94501 2.2815L10.1032 2.15918C9.58078 1.48332 8.91872 0.930943 8.16325 0.540711L8.07146 0.718405ZM10.0247 2.32034C11.3448 2.31238 12.6601 2.32035 13.9816 2.31504L13.9808 2.11504C12.6646 2.12033 11.3412 2.1124 10.0235 2.12034L10.0247 2.32034ZM13.9874 2.31485C14.2539 2.29838 14.5197 2.35869 14.7539 2.48887L14.8511 2.31406C14.5836 2.16537 14.2798 2.0964 13.975 2.11523L13.9874 2.31485ZM14.7539 2.48887C14.9881 2.61905 15.1812 2.81384 15.3107 3.05079L15.4862 2.95488C15.3387 2.68497 15.1185 2.46273 14.8511 2.31406L14.7539 2.48887ZM15.3045 3.0371C15.4833 3.52712 15.5412 4.05392 15.4732 4.57176L15.6715 4.5978C15.7437 4.0481 15.6822 3.48886 15.4924 2.96857L15.3045 3.0371ZM15.5723 4.68478H20.965V4.48478H15.5723V4.68478ZM20.9756 4.68421C21.0964 4.67132 21.1911 4.72107 21.2837 4.81073C21.3306 4.8562 21.3748 4.90993 21.4199 4.96803C21.4634 5.02404 21.5103 5.08765 21.5563 5.14267L21.7098 5.01441C21.6668 4.96295 21.626 4.90729 21.5779 4.84537C21.5315 4.78554 21.4803 4.72268 21.4228 4.66704C21.3065 4.55445 21.1561 4.4638 20.9544 4.48534L20.9756 4.68421ZM21.5545 5.14041C22.6468 6.52755 23.7432 7.91151 24.8439 9.29229L25.0003 9.16762C23.8999 7.78715 22.8037 6.4035 21.7116 5.01668L21.5545 5.14041ZM24.8496 9.29883C25.0615 9.52186 25.2347 9.77955 25.3618 10.061L25.5441 9.9787C25.4077 9.67686 25.222 9.40042 24.9946 9.16108L24.8496 9.29883ZM25.353 10.0199V16.2443H25.553V10.0199H25.353ZM25.3532 16.2381C25.3379 16.4845 25.2413 16.7184 25.0792 16.9023L25.2293 17.0345C25.4209 16.817 25.5347 16.541 25.5528 16.2505L25.3532 16.2381ZM25.0792 16.9023C24.9172 17.0863 24.699 17.2098 24.4597 17.2532L24.4954 17.45C24.7793 17.3984 25.0377 17.2521 25.2293 17.0345L25.0792 16.9023ZM24.4675 17.2521C24.2115 17.278 23.9535 17.2801 23.6917 17.2772C23.4315 17.2744 23.1651 17.2667 22.9005 17.2739L22.906 17.4738C23.1655 17.4667 23.4244 17.4743 23.6895 17.4772C23.953 17.4801 24.2201 17.4782 24.4876 17.4511L24.4675 17.2521ZM22.8041 17.3608C22.7378 17.8636 22.5434 18.3402 22.2399 18.7436L22.3997 18.8638C22.724 18.4327 22.9316 17.9237 23.0024 17.3869L22.8041 17.3608ZM22.2399 18.7436C21.9364 19.1471 21.5344 19.4635 21.0736 19.6618L21.1527 19.8455C21.6457 19.6333 22.0754 19.295 22.3997 18.8638L22.2399 18.7436ZM21.0742 19.6616C20.6648 19.8349 20.2215 19.9108 19.7786 19.8834L19.7662 20.083C20.2401 20.1123 20.7143 20.0312 21.1522 19.8457L21.0742 19.6616ZM19.7786 19.8834C19.3357 19.8559 18.9048 19.7259 18.5193 19.5032L18.4193 19.6764C18.8315 19.9145 19.2923 20.0536 19.7662 20.083L19.7786 19.8834ZM18.5193 19.5032C18.1338 19.2806 17.8039 18.9712 17.5551 18.5989L17.3888 18.7101C17.6546 19.1077 18.0071 19.4383 18.4193 19.6764L18.5193 19.5032ZM17.5551 18.5989C17.3063 18.2267 17.1452 17.8014 17.0845 17.3561L16.8863 17.3831C16.9512 17.8585 17.1231 18.3125 17.3888 18.7101L17.5551 18.5989ZM16.9854 17.2696C14.5008 17.2696 12.0162 17.2664 9.53132 17.2696L9.53158 17.4696C12.0163 17.4664 14.5004 17.4696 16.9854 17.4696V17.2696ZM9.43242 17.3557C9.33708 18.035 9.01213 18.6596 8.51313 19.1234L8.6493 19.2699C9.18217 18.7746 9.5288 18.108 9.63048 17.3835L9.43242 17.3557ZM8.51313 19.1234C8.01416 19.5873 7.37198 19.8616 6.69591 19.9002L6.70729 20.0998C7.43015 20.0586 8.1164 19.7653 8.6493 19.2699L8.51313 19.1234ZM6.7016 19.9H6.46704V20.1H6.7016V19.9ZM6.47174 19.9001C5.7928 19.8682 5.14598 19.5975 4.64289 19.1344L4.50745 19.2816C5.04487 19.7762 5.73624 20.0657 6.46234 20.0999L6.47174 19.9001ZM4.64289 19.1344C4.13979 18.6714 3.81198 18.0449 3.71632 17.3631L3.51826 17.3909C3.62031 18.1183 3.97006 18.787 4.50745 19.2816L4.64289 19.1344ZM3.60935 17.2773C3.05557 17.3214 2.49839 17.2837 1.95533 17.1654L1.91275 17.3608C2.47499 17.4833 3.05187 17.5224 3.62523 17.4767L3.60935 17.2773ZM1.96965 17.1697C1.70877 17.0702 1.48401 16.8923 1.32575 16.6595L1.16036 16.772C1.34149 17.0384 1.599 17.2424 1.89842 17.3566L1.96965 17.1697ZM1.32575 16.6595C1.16748 16.4268 1.08335 16.1504 1.08482 15.8676L0.884822 15.8666C0.883144 16.1897 0.979249 16.5056 1.16036 16.772L1.32575 16.6595ZM1.08482 15.867C1.08063 13.4966 1.08482 11.1275 1.08168 8.75672L0.881679 8.75699C0.884819 11.1257 0.880633 13.4982 0.884821 15.8673L1.08482 15.867ZM1.06462 8.70099C0.476639 7.82791 0.142372 6.80535 0.0999193 5.74947L-0.0999193 5.75751C-0.0559836 6.85028 0.289963 7.90877 0.898735 8.81271L1.06462 8.70099ZM0.1 5.75349V5.40701H-0.1V5.75349H0.1ZM0.0999034 5.4114C0.159964 4.04609 0.714442 2.75109 1.65733 1.77321L1.51336 1.63438C0.53642 2.64758 -0.0377144 3.98891 -0.0999034 5.40261L0.0999034 5.4114ZM1.657 1.77355C2.65968 0.743523 4.01579 0.144268 5.44344 0.0999519L5.43723 -0.0999519C3.95744 -0.0540172 2.55228 0.567132 1.51369 1.63404L1.657 1.77355ZM4.82481 0.686886C3.84149 0.841376 2.9267 1.29068 2.1986 1.97656L2.33574 2.12214C3.03468 1.46373 3.91255 1.03267 4.85585 0.884463L4.82481 0.686886ZM2.1986 1.97656C1.47051 2.66242 0.962554 3.55332 0.740175 4.53406L0.935224 4.57828C1.14886 3.6361 1.63678 2.78056 2.33574 2.12214L2.1986 1.97656ZM0.739986 4.53491C0.578412 5.27738 0.589077 6.04762 0.771148 6.78522L0.96532 6.73729C0.790571 6.02936 0.780333 5.29006 0.935413 4.57744L0.739986 4.53491ZM0.771148 6.78522C0.953221 7.52283 1.30177 8.2078 1.78952 8.78634L1.94243 8.65743C1.47455 8.10246 1.14007 7.44523 0.96532 6.73729L0.771148 6.78522ZM1.78898 8.7857C2.23029 9.31814 2.77661 9.75161 3.39306 10.0583L3.48216 9.87927C2.89081 9.58504 2.36655 9.16913 1.94297 8.65807L1.78898 8.7857ZM3.39306 10.0583C4.00952 10.365 4.68249 10.5382 5.36896 10.5668L5.37727 10.367C4.71896 10.3396 4.0735 10.1735 3.48216 9.87927L3.39306 10.0583ZM5.36896 10.5668C6.05542 10.5954 6.7402 10.4787 7.37948 10.2242L7.30551 10.0383C6.69232 10.2824 6.03558 10.3944 5.37727 10.367L5.36896 10.5668ZM7.37948 10.2242C8.01876 9.96967 8.59844 9.58302 9.08148 9.08901L8.93848 8.94919C8.47489 9.4233 7.9187 9.79424 7.30551 10.0383L7.37948 10.2242ZM9.081 9.0895C9.56018 8.60607 9.93458 8.02706 10.1804 7.38936L9.99382 7.31741C9.75786 7.92945 9.39859 8.48498 8.93896 8.9487L9.081 9.0895ZM10.1804 7.38936C10.4263 6.75166 10.5382 6.0692 10.5092 5.38539L10.3094 5.39387C10.3373 6.05029 10.2298 6.70538 9.99382 7.31741L10.1804 7.38936ZM10.5092 5.38539C10.4802 4.70158 10.3107 4.03133 10.0117 3.41731L9.83189 3.50488C10.1189 4.09414 10.2815 4.73745 10.3094 5.39387L10.5092 5.38539ZM10.0117 3.41731C9.71265 2.80328 9.29051 2.25888 8.77208 1.81881L8.64265 1.97129C9.13988 2.39336 9.54491 2.91562 9.83189 3.50488L10.0117 3.41731ZM8.77272 1.81936C8.23379 1.35403 7.602 1.01167 6.92035 0.815663L6.86508 1.00787C7.51881 1.19585 8.12489 1.52424 8.64201 1.97074L8.77272 1.81936ZM6.92035 0.815663C6.2387 0.619657 5.52328 0.574638 4.82285 0.683686L4.85362 0.881305C5.5253 0.776733 6.21136 0.819899 6.86508 1.00787L6.92035 0.815663ZM10.3903 2.99365C10.8854 3.92419 11.1042 4.97976 11.0203 6.03332L11.2197 6.04919C11.3066 4.95771 11.0799 3.86402 10.5669 2.89971L10.3903 2.99365ZM11.0203 6.03332C10.9365 7.08688 10.5535 8.09336 9.91774 8.93165L10.0771 9.05251C10.7361 8.18362 11.1328 7.14068 11.2197 6.04919L11.0203 6.03332ZM9.91789 8.93146C9.44697 9.54933 8.85264 10.0597 8.17374 10.4292L8.26936 10.6049C8.97313 10.2218 9.58904 9.69287 10.077 9.0527L9.91789 8.93146ZM8.17374 10.4292C7.49484 10.7988 6.74662 11.0193 5.9779 11.0764L5.99271 11.2758C6.78982 11.2166 7.56559 10.988 8.26936 10.6049L8.17374 10.4292ZM5.9779 11.0764C5.20918 11.1335 4.43719 11.0259 3.7123 10.7606L3.64356 10.9484C4.39512 11.2235 5.19559 11.335 5.99271 11.2758L5.9779 11.0764ZM3.7123 10.7606C2.98741 10.4953 2.32587 10.0783 1.7709 9.53666L1.63121 9.67979C2.20631 10.2411 2.89201 10.6734 3.64356 10.9484L3.7123 10.7606ZM1.60105 9.60855C1.60786 11.6945 1.60105 13.779 1.6042 15.8657L1.80419 15.8654C1.80105 13.7805 1.80786 11.6935 1.80105 9.6079L1.60105 9.60855ZM1.60421 15.8638C1.60045 16.0817 1.67924 16.293 1.82474 16.4543L1.97324 16.3203C1.86189 16.1969 1.80129 16.0348 1.80418 15.8673L1.60421 15.8638ZM1.82474 16.4543C1.97026 16.6156 2.17152 16.7147 2.38733 16.7308L2.40222 16.5314C2.23809 16.5191 2.08455 16.4437 1.97324 16.3203L1.82474 16.4543ZM2.39152 16.731C2.59683 16.7377 2.80177 16.7369 3.00479 16.7357C3.20838 16.7345 3.40986 16.733 3.61115 16.7379L3.6161 16.538C3.41111 16.5329 3.2063 16.5345 3.00361 16.5357C2.80034 16.5369 2.599 16.5377 2.39803 16.5311L2.39152 16.731ZM3.71282 16.6506C3.80273 15.9466 4.14289 15.3 4.66942 14.8317L4.53649 14.6822C3.97362 15.1829 3.61041 15.8737 3.51443 16.6253L3.71282 16.6506ZM4.66942 14.8317C5.19591 14.3633 5.87272 14.1052 6.57332 14.1052V13.9052C5.82343 13.9052 5.09939 14.1815 4.53649 14.6822L4.66942 14.8317ZM6.57332 14.1052C7.27393 14.1052 7.95074 14.3633 8.47723 14.8317L8.61016 14.6822C8.04726 14.1815 7.32322 13.9052 6.57332 13.9052V14.1052ZM8.47723 14.8317C9.00375 15.3 9.34392 15.9466 9.43383 16.6506L9.63221 16.6253C9.53623 15.8737 9.17303 15.1829 8.61016 14.6822L8.47723 14.8317ZM9.53326 16.738C11.308 16.7337 13.0814 16.738 14.8556 16.738V16.538C13.0821 16.538 11.3078 16.5337 9.53278 16.538L9.53326 16.738ZM14.9556 16.638V3.73818H14.7556V16.638H14.9556ZM14.9555 3.74192C14.9599 3.62436 14.9404 3.50711 14.8983 3.3974L14.7116 3.46909C14.744 3.55353 14.759 3.64385 14.7556 3.73444L14.9555 3.74192ZM14.8983 3.3974C14.8562 3.28768 14.7923 3.18778 14.7104 3.10389L14.5673 3.24356C14.63 3.3079 14.6792 3.38464 14.7116 3.46909L14.8983 3.3974ZM14.7104 3.10389C14.6285 3.01999 14.5305 2.95389 14.4223 2.90973L14.3467 3.0949C14.4294 3.12865 14.5045 3.17922 14.5673 3.24356L14.7104 3.10389ZM14.4223 2.90973C14.3141 2.86556 14.198 2.84428 14.0813 2.84724L14.0864 3.04717C14.1754 3.04492 14.264 3.06115 14.3467 3.0949L14.4223 2.90973ZM14.0838 2.84721H10.4791V3.04721H14.0838V2.84721ZM15.4739 5.30921C15.4817 9.08625 15.4739 12.8621 15.4781 16.6402L15.6781 16.64C15.6739 12.8633 15.6817 9.08546 15.6739 5.30879L15.4739 5.30921ZM15.5781 16.7401C16.0509 16.7401 16.52 16.7348 16.9874 16.7401L16.9897 16.5401C16.521 16.5348 16.0477 16.5401 15.5781 16.5401V16.7401ZM17.0877 16.6528C17.15 16.1675 17.3318 15.7058 17.6163 15.3103L17.454 15.1935C17.15 15.6161 16.9559 16.1092 16.8894 16.6274L17.0877 16.6528ZM17.6163 15.3103C17.9008 14.9147 18.2789 14.598 18.7157 14.389L18.6294 14.2086C18.1621 14.4321 17.7579 14.7708 17.454 15.1935L17.6163 15.3103ZM18.7157 14.389C19.1525 14.1801 19.6342 14.0856 20.1164 14.1141L20.1282 13.9145C19.6121 13.8839 19.0967 13.9851 18.6294 14.2086L18.7157 14.389ZM20.1164 14.1141C20.5987 14.1427 21.0661 14.2934 21.476 14.5525L21.5828 14.3834C21.1445 14.1063 20.6444 13.945 20.1282 13.9145L20.1164 14.1141ZM21.4764 14.5528C21.8384 14.7791 22.1457 15.0848 22.3756 15.4474L22.5445 15.3403C22.2987 14.9525 21.9699 14.6254 21.5824 14.3832L21.4764 14.5528ZM22.3756 15.4474C22.6055 15.81 22.7521 16.2203 22.8045 16.648L23.003 16.6237C22.947 16.1666 22.7904 15.7281 22.5445 15.3403L22.3756 15.4474ZM22.905 16.7358C23.1419 16.7329 23.379 16.7344 23.6173 16.7355C23.8552 16.7365 24.0941 16.7372 24.3329 16.7327L24.3291 16.5327C24.093 16.5372 23.8562 16.5365 23.6182 16.5355C23.3806 16.5344 23.1415 16.5329 22.9025 16.5359L22.905 16.7358ZM24.3394 16.7323C24.4097 16.7264 24.4782 16.7065 24.5408 16.6738L24.4482 16.4965C24.4091 16.5169 24.3664 16.5293 24.3226 16.533L24.3394 16.7323ZM24.5408 16.6738C24.6034 16.641 24.659 16.5962 24.7043 16.5418L24.5507 16.4137C24.5222 16.4479 24.4873 16.476 24.4482 16.4965L24.5408 16.6738ZM24.7043 16.5418C24.7497 16.4874 24.7839 16.4246 24.8051 16.3569L24.6142 16.2971C24.6008 16.3399 24.5792 16.3795 24.5507 16.4137L24.7043 16.5418ZM24.8051 16.3569C24.8263 16.2892 24.8341 16.218 24.828 16.1473L24.6287 16.1644C24.6326 16.2092 24.6276 16.2543 24.6142 16.2971L24.8051 16.3569ZM24.8284 16.1559V11.7168H24.6284V16.1559H24.8284ZM24.7284 11.6168C22.9061 11.6168 21.086 11.62 19.2641 11.6168L19.2638 11.8168C21.0859 11.82 22.9066 11.8168 24.7284 11.8168V11.6168ZM19.2658 11.6168C18.9972 11.6118 18.7402 11.5043 18.5462 11.3157L18.4068 11.459C18.637 11.6829 18.9424 11.8108 19.2621 11.8168L19.2658 11.6168ZM18.5462 11.3157C18.3522 11.1269 18.2355 10.8708 18.2198 10.5985L18.0201 10.61C18.0387 10.9319 18.1766 11.2352 18.4068 11.459L18.5462 11.3157ZM18.22 10.6036C18.2145 9.7334 18.2145 8.86319 18.22 7.993L18.02 7.99174C18.0145 8.86277 18.0145 9.73383 18.02 10.6049L18.22 10.6036ZM18.22 7.99349C18.2231 7.71338 18.335 7.44599 18.5311 7.24899L18.3894 7.10788C18.1562 7.34206 18.0237 7.65938 18.02 7.99125L18.22 7.99349ZM18.5311 7.24899C18.7272 7.05202 18.9917 6.94121 19.2675 6.94008L19.2667 6.74008C18.9376 6.74143 18.6225 6.87367 18.3894 7.10788L18.5311 7.24899ZM19.2676 6.94008C20.2134 6.93479 21.159 6.94008 22.1058 6.94008V6.74008C21.1606 6.74008 20.2129 6.73479 19.2665 6.74009L19.2676 6.94008ZM22.1847 6.77853C21.7818 6.26275 21.3748 5.75121 20.9636 5.24391L20.8083 5.36985C21.2187 5.87621 21.625 6.3868 22.027 6.90164L22.1847 6.77853ZM20.8858 5.20688C19.1162 5.21006 17.3434 5.2037 15.574 5.21006L15.5748 5.41006C17.3447 5.4037 19.1143 5.41006 20.8861 5.40688L20.8858 5.20688ZM18.7278 8.07555C18.7278 8.8838 18.7236 9.69479 18.7278 10.5041L18.9278 10.503C18.9236 9.69436 18.9278 8.88527 18.9278 8.07555H18.7278ZM18.728 10.4983C18.724 10.5729 18.7348 10.6475 18.7598 10.7178L18.9483 10.651C18.9321 10.6055 18.9251 10.5571 18.9277 10.5088L18.728 10.4983ZM18.7598 10.7178C18.7847 10.7881 18.8233 10.8528 18.8733 10.908L19.0215 10.7737C18.9893 10.7382 18.9644 10.6965 18.9483 10.651L18.7598 10.7178ZM18.8733 10.908C18.9234 10.9632 18.9838 11.0078 19.0512 11.0391L19.1356 10.8578C19.0925 10.8377 19.0537 10.8092 19.0215 10.7737L18.8733 10.908ZM19.0512 11.0391C19.1187 11.0705 19.1916 11.0879 19.2659 11.0904L19.2725 10.8905C19.2252 10.8889 19.1787 10.8778 19.1356 10.8578L19.0512 11.0391ZM19.2687 11.0904C21.089 11.0994 22.911 11.0904 24.7291 11.0957L24.7297 10.8957C22.908 10.8904 21.0913 10.8994 19.2697 10.8904L19.2687 11.0904ZM24.8294 10.9957C24.8294 10.7169 24.8294 10.4381 24.8346 10.16L24.6347 10.1563C24.6294 10.4366 24.6294 10.7172 24.6294 10.9957H24.8294ZM24.8134 10.0966C24.1597 9.26033 23.4943 8.43029 22.8389 7.5973L22.6817 7.72097C23.3394 8.55681 24.0017 9.38289 24.6559 10.2197L24.8134 10.0966ZM22.8482 7.61138C22.7843 7.49398 22.6763 7.46482 22.5877 7.45877C22.545 7.45586 22.5011 7.45782 22.466 7.45899C22.428 7.46025 22.3993 7.46065 22.3753 7.45765L22.3506 7.65612C22.3925 7.66134 22.4363 7.66008 22.4726 7.65888C22.5118 7.65757 22.5439 7.65625 22.574 7.65831C22.6309 7.66219 22.6556 7.67595 22.6724 7.70689L22.8482 7.61138ZM22.3619 7.45689C21.338 7.46689 20.2976 7.44899 19.2722 7.46591L19.2755 7.66588C20.3057 7.64889 21.327 7.66701 22.3639 7.65688L22.3619 7.45689ZM19.2717 7.46592C19.1947 7.46757 19.1188 7.48536 19.049 7.51811L19.1339 7.69919C19.1785 7.67826 19.2269 7.66692 19.276 7.66587L19.2717 7.46592ZM19.049 7.51811C18.9791 7.55086 18.9168 7.59785 18.8659 7.65606L19.0165 7.78768C19.0493 7.75024 19.0892 7.72013 19.1339 7.69919L19.049 7.51811ZM18.8659 7.65606C18.8151 7.71426 18.7767 7.78242 18.7532 7.85622L18.9438 7.91687C18.959 7.86911 18.9838 7.82514 19.0165 7.78768L18.8659 7.65606ZM18.7532 7.85622C18.7297 7.93002 18.7216 8.00791 18.7294 8.085L18.9284 8.06503C18.9234 8.01508 18.9286 7.96462 18.9438 7.91687L18.7532 7.85622ZM5.90869 14.7253C5.43046 14.8732 5.01017 15.1688 4.70657 15.5703L4.86611 15.691C5.14461 15.3226 5.52988 15.0518 5.9678 14.9163L5.90869 14.7253ZM4.70657 15.5703C4.40298 15.9719 4.23125 16.4593 4.21525 16.9643L4.41515 16.9707C4.42984 16.5068 4.58759 16.0593 4.86611 15.691L4.70657 15.5703ZM4.2152 16.9672C4.21358 17.4735 4.3708 17.9674 4.66438 18.3777L4.82704 18.2613C4.55797 17.8853 4.41371 17.4324 4.4152 16.9678L4.2152 16.9672ZM4.66438 18.3777C4.95798 18.7881 5.37285 19.0938 5.8494 19.2505L5.9119 19.0605C5.47599 18.9171 5.09609 18.6374 4.82704 18.2613L4.66438 18.3777ZM5.84912 19.2504C6.41883 19.4397 7.03859 19.4008 7.5807 19.1416L7.49445 18.9612C6.99897 19.198 6.43273 19.2336 5.91218 19.0606L5.84912 19.2504ZM7.5807 19.1416C8.12278 18.8825 8.54572 18.4232 8.7628 17.8584L8.57611 17.7867C8.37722 18.3041 7.98997 18.7243 7.49445 18.9612L7.5807 19.1416ZM8.7628 17.8584C8.97987 17.2937 8.97471 16.6663 8.74837 16.1053L8.5629 16.1802C8.77029 16.6942 8.77502 17.2692 8.57611 17.7867L8.7628 17.8584ZM8.74837 16.1053C8.52202 15.5443 8.09157 15.0921 7.5453 14.8422L7.46209 15.024C7.96142 15.2525 8.35552 15.6662 8.5629 16.1802L8.74837 16.1053ZM7.54401 14.8416C7.0286 14.6145 6.45175 14.5732 5.90978 14.7245L5.96356 14.9171C6.46091 14.7783 6.99026 14.8162 7.46338 15.0246L7.54401 14.8416ZM19.2796 14.7252C18.8841 14.8467 18.5275 15.0719 18.2458 15.3776L18.3929 15.5131C18.6507 15.2333 18.9769 15.0275 19.3383 14.9164L19.2796 14.7252ZM18.2458 15.3776C17.9642 15.6834 17.7676 16.059 17.6757 16.4662L17.8708 16.5102C17.955 16.137 18.1352 15.793 18.3929 15.5131L18.2458 15.3776ZM17.6757 16.4662C17.5839 16.8734 17.6 17.298 17.7225 17.6969L17.9137 17.6381C17.8014 17.2726 17.7866 16.8834 17.8708 16.5102L17.6757 16.4662ZM17.7225 17.6969C17.8451 18.0958 18.0697 18.4549 18.3737 18.7379L18.51 18.5915C18.2318 18.3326 18.026 18.0037 17.9137 17.6381L17.7225 17.6969ZM18.3737 18.7379C18.6778 19.0209 19.0505 19.2177 19.4541 19.3081L19.4978 19.1129C19.129 19.0303 18.7882 18.8505 18.51 18.5915L18.3737 18.7379ZM19.4541 19.3081C19.8577 19.3985 20.2778 19.3793 20.6717 19.2526L20.6105 19.0622C20.2505 19.178 19.8666 19.1955 19.4978 19.1129L19.4541 19.3081ZM20.6717 19.2526C21.0656 19.1258 21.4193 18.896 21.6969 18.5865L21.5481 18.4529C21.2939 18.7362 20.9705 18.9463 20.6105 19.0622L20.6717 19.2526ZM21.6969 18.5865C21.9746 18.277 22.1663 17.8989 22.2529 17.4905L22.0572 17.449C21.9779 17.8233 21.8022 18.1696 21.5481 18.4529L21.6969 18.5865ZM22.253 17.4899C22.3457 17.0399 22.3064 16.5722 22.1397 16.1444L21.9534 16.217C22.106 16.6088 22.1421 17.0372 22.0571 17.4496L22.253 17.4899ZM22.1397 16.1444C21.9731 15.7167 21.6864 15.3474 21.3147 15.0822L21.1985 15.245C21.5383 15.4874 21.8008 15.8253 21.9534 16.217L22.1397 16.1444ZM21.3147 15.0822C21.0235 14.8743 20.6901 14.7345 20.3387 14.673L20.3042 14.87C20.626 14.9263 20.9315 15.0544 21.1985 15.245L21.3147 15.0822ZM20.3387 14.673C19.9874 14.6115 19.6269 14.6298 19.2834 14.7267L19.3377 14.9192C19.6523 14.8305 19.9824 14.8137 20.3042 14.87L20.3387 14.673ZM19.3909 14.7634L19.3893 14.7613L19.2286 14.8803L19.2302 14.8824L19.3909 14.7634Z" fill="black" mask="url(#path-1-outside-1_12211_10440)"></path></g><path id="Path 36099" d="M7.86955 4.21609C8.29888 3.86749 8.89574 4.44654 8.68788 4.92123C7.60306 5.9575 6.51527 6.99076 5.42452 8.02102C5.30199 8.12493 5.14722 8.18187 4.98735 8.18187C4.82747 8.18187 4.6727 8.12493 4.55017 8.02102C4.00389 7.4594 3.46475 6.89072 2.93289 6.3151C2.81299 6.17895 2.65121 6.0465 2.67111 5.84359C2.67086 5.75494 2.69406 5.66782 2.7383 5.5913C2.78254 5.51477 2.8462 5.45161 2.92269 5.40837C2.99918 5.36513 3.08571 5.34338 3.1733 5.34539C3.2609 5.34739 3.34637 5.37307 3.42085 5.41976C3.96169 5.91194 4.41562 6.49841 4.95436 6.98952C5.9151 6.05657 6.89468 5.13739 7.86955 4.21609Z" fill="black"></path></g><defs><clipPath id="clip0_12211_10440"><rect width="25.4545" height="20" fill="white"></rect></clipPath></defs></svg>